<mxfile host="65bd71144e">
    <diagram id="kAjNjlUFmc69l3NrdyWb" name="Page-1">
        <mxGraphModel dx="830" dy="584" grid="1" gridSize="10" guides="1" tooltips="1" connect="1" arrows="1" fold="1" page="1" pageScale="1" pageWidth="850" pageHeight="1100" math="0" shadow="0">
            <root>
                <mxCell id="0"/>
                <mxCell id="1" parent="0"/>
                <mxCell id="7" value="Website Visitors Enters&amp;nbsp;&lt;br&gt;Here&lt;br&gt;Home page has search bar, sign in with encryption, photos, with description&amp;nbsp;&lt;br&gt;" style="ellipse;whiteSpace=wrap;html=1;" vertex="1" parent="1">
                    <mxGeometry y="100" width="140" height="130" as="geometry"/>
                </mxCell>
                <mxCell id="9" value="" style="endArrow=classic;html=1;exitX=1;exitY=0.5;exitDx=0;exitDy=0;entryX=-0.007;entryY=0.164;entryDx=0;entryDy=0;entryPerimeter=0;" edge="1" parent="1" source="7" target="gfrgn51c0QoDP498l0EQ-74">
                    <mxGeometry width="50" height="50" relative="1" as="geometry">
                        <mxPoint x="400" y="250" as="sourcePoint"/>
                        <mxPoint x="180" y="100" as="targetPoint"/>
                    </mxGeometry>
                </mxCell>
                <mxCell id="gfrgn51c0QoDP498l0EQ-74" value="" style="whiteSpace=wrap;html=1;aspect=fixed;" vertex="1" parent="1">
                    <mxGeometry x="180" y="100" width="630" height="630" as="geometry"/>
                </mxCell>
                <mxCell id="gfrgn51c0QoDP498l0EQ-75" value="MealMapper Heading and Nav-Bar&amp;nbsp;" style="rounded=1;whiteSpace=wrap;html=1;" vertex="1" parent="1">
                    <mxGeometry x="180" y="35" width="620" height="60" as="geometry"/>
                </mxCell>
                <mxCell id="gfrgn51c0QoDP498l0EQ-76" value="Home" style="html=1;strokeColor=none;fillColor=#0079D6;labelPosition=center;verticalLabelPosition=middle;verticalAlign=top;align=center;fontSize=12;outlineConnect=0;spacingTop=-6;fontColor=#FFFFFF;sketch=0;shape=mxgraph.sitemap.home;" vertex="1" parent="1">
                    <mxGeometry x="20" y="10" width="120" height="70" as="geometry"/>
                </mxCell>
                <mxCell id="gfrgn51c0QoDP498l0EQ-77" value="" style="strokeWidth=1;shadow=0;dashed=0;align=center;html=1;shape=mxgraph.mockup.forms.rrect;rSize=0;strokeColor=#999999;fillColor=#ffffff;" vertex="1" parent="1">
                    <mxGeometry x="570" y="130" width="200" height="300" as="geometry"/>
                </mxCell>
                <mxCell id="gfrgn51c0QoDP498l0EQ-78" value="Sign In" style="strokeWidth=1;shadow=0;dashed=0;align=center;html=1;shape=mxgraph.mockup.forms.anchor;fontSize=12;fontColor=#666666;align=left;resizeWidth=1;spacingLeft=0;" vertex="1" parent="gfrgn51c0QoDP498l0EQ-77">
                    <mxGeometry width="100" height="20" relative="1" as="geometry">
                        <mxPoint x="10" y="10" as="offset"/>
                    </mxGeometry>
                </mxCell>
                <mxCell id="gfrgn51c0QoDP498l0EQ-79" value="" style="shape=line;strokeColor=#ddeeff;strokeWidth=2;html=1;resizeWidth=1;" vertex="1" parent="gfrgn51c0QoDP498l0EQ-77">
                    <mxGeometry width="180" height="10" relative="1" as="geometry">
                        <mxPoint x="10" y="30" as="offset"/>
                    </mxGeometry>
                </mxCell>
                <mxCell id="gfrgn51c0QoDP498l0EQ-80" value="User Name:" style="strokeWidth=1;shadow=0;dashed=0;align=center;html=1;shape=mxgraph.mockup.forms.anchor;fontSize=12;fontColor=#666666;align=left;resizeWidth=1;spacingLeft=0;" vertex="1" parent="gfrgn51c0QoDP498l0EQ-77">
                    <mxGeometry width="100" height="20" relative="1" as="geometry">
                        <mxPoint x="10" y="40" as="offset"/>
                    </mxGeometry>
                </mxCell>
                <mxCell id="gfrgn51c0QoDP498l0EQ-81" value="johndoe" style="strokeWidth=1;shadow=0;dashed=0;align=center;html=1;shape=mxgraph.mockup.forms.rrect;rSize=0;strokeColor=#999999;fontColor=#666666;align=left;spacingLeft=5;resizeWidth=1;" vertex="1" parent="gfrgn51c0QoDP498l0EQ-77">
                    <mxGeometry width="150" height="25" relative="1" as="geometry">
                        <mxPoint x="10" y="60" as="offset"/>
                    </mxGeometry>
                </mxCell>
                <mxCell id="gfrgn51c0QoDP498l0EQ-82" value="Password:" style="strokeWidth=1;shadow=0;dashed=0;align=center;html=1;shape=mxgraph.mockup.forms.anchor;fontSize=12;fontColor=#666666;align=left;resizeWidth=1;spacingLeft=0;" vertex="1" parent="gfrgn51c0QoDP498l0EQ-77">
                    <mxGeometry width="100" height="20" relative="1" as="geometry">
                        <mxPoint x="10" y="95" as="offset"/>
                    </mxGeometry>
                </mxCell>
                <mxCell id="gfrgn51c0QoDP498l0EQ-83" value="********" style="strokeWidth=1;shadow=0;dashed=0;align=center;html=1;shape=mxgraph.mockup.forms.rrect;rSize=0;strokeColor=#999999;fontColor=#666666;align=left;spacingLeft=5;resizeWidth=1;" vertex="1" parent="gfrgn51c0QoDP498l0EQ-77">
                    <mxGeometry width="150" height="25" relative="1" as="geometry">
                        <mxPoint x="10" y="115" as="offset"/>
                    </mxGeometry>
                </mxCell>
                <mxCell id="gfrgn51c0QoDP498l0EQ-84" value="SIGN IN" style="strokeWidth=1;shadow=0;dashed=0;align=center;html=1;shape=mxgraph.mockup.forms.rrect;rSize=5;strokeColor=none;fontColor=#ffffff;fillColor=#66bbff;fontSize=16;fontStyle=1;" vertex="1" parent="gfrgn51c0QoDP498l0EQ-77">
                    <mxGeometry y="1" width="80" height="30" relative="1" as="geometry">
                        <mxPoint x="20" y="-150" as="offset"/>
                    </mxGeometry>
                </mxCell>
                <mxCell id="gfrgn51c0QoDP498l0EQ-85" value="Forgot Password?" style="strokeWidth=1;shadow=0;dashed=0;align=center;html=1;shape=mxgraph.mockup.forms.anchor;fontSize=12;fontColor=#9999ff;align=left;spacingLeft=0;fontStyle=4;resizeWidth=1;" vertex="1" parent="gfrgn51c0QoDP498l0EQ-77">
                    <mxGeometry y="1" width="150" height="20" relative="1" as="geometry">
                        <mxPoint x="10" y="-110" as="offset"/>
                    </mxGeometry>
                </mxCell>
                <mxCell id="gfrgn51c0QoDP498l0EQ-86" value="" style="shape=line;strokeColor=#ddeeff;strokeWidth=2;html=1;resizeWidth=1;" vertex="1" parent="gfrgn51c0QoDP498l0EQ-77">
                    <mxGeometry y="1" width="180" height="10" relative="1" as="geometry">
                        <mxPoint x="10" y="-90" as="offset"/>
                    </mxGeometry>
                </mxCell>
                <mxCell id="gfrgn51c0QoDP498l0EQ-87" value="New User" style="strokeWidth=1;shadow=0;dashed=0;align=center;html=1;shape=mxgraph.mockup.forms.anchor;fontSize=12;fontColor=#666666;align=left;spacingLeft=0;resizeWidth=1;" vertex="1" parent="gfrgn51c0QoDP498l0EQ-77">
                    <mxGeometry y="1" width="150" height="20" relative="1" as="geometry">
                        <mxPoint x="10" y="-70" as="offset"/>
                    </mxGeometry>
                </mxCell>
                <mxCell id="gfrgn51c0QoDP498l0EQ-88" value="SIGN UP" style="strokeWidth=1;shadow=0;dashed=0;align=center;html=1;shape=mxgraph.mockup.forms.rrect;rSize=5;strokeColor=none;fontColor=#ffffff;fillColor=#66bbff;fontSize=16;fontStyle=1;" vertex="1" parent="gfrgn51c0QoDP498l0EQ-77">
                    <mxGeometry y="1" width="80" height="30" relative="1" as="geometry">
                        <mxPoint x="20" y="-50" as="offset"/>
                    </mxGeometry>
                </mxCell>
                <mxCell id="gfrgn51c0QoDP498l0EQ-89" value="Description of MealMapper App with Photos" style="shape=ext;double=1;whiteSpace=wrap;html=1;aspect=fixed;" vertex="1" parent="1">
                    <mxGeometry x="220" y="130" width="300" height="300" as="geometry"/>
                </mxCell>
                <mxCell id="gfrgn51c0QoDP498l0EQ-95" value="Contact" style="html=1;strokeColor=none;fillColor=#0079D6;labelPosition=center;verticalLabelPosition=middle;verticalAlign=top;align=center;fontSize=12;outlineConnect=0;spacingTop=-6;fontColor=#FFFFFF;sketch=0;shape=mxgraph.sitemap.contact;" vertex="1" parent="1">
                    <mxGeometry x="510" y="640" width="120" height="70" as="geometry"/>
                </mxCell>
                <mxCell id="gfrgn51c0QoDP498l0EQ-97" value="Contact us" style="html=1;strokeColor=none;fillColor=#0079D6;labelPosition=center;verticalLabelPosition=middle;verticalAlign=top;align=center;fontSize=12;outlineConnect=0;spacingTop=-6;fontColor=#FFFFFF;sketch=0;shape=mxgraph.sitemap.contact_us;" vertex="1" parent="1">
                    <mxGeometry x="650" y="640" width="120" height="70" as="geometry"/>
                </mxCell>
                <mxCell id="gfrgn51c0QoDP498l0EQ-98" value="user testimonial? This app was awesome and easy to use." style="rounded=1;whiteSpace=wrap;html=1;" vertex="1" parent="1">
                    <mxGeometry x="230" y="460" width="540" height="80" as="geometry"/>
                </mxCell>
            </root>
        </mxGraphModel>
    </diagram>
    <diagram id="_G7Y2mnA8yVPqgH8Lxil" name="Page-2">
        <mxGraphModel dx="830" dy="1684" grid="1" gridSize="10" guides="1" tooltips="1" connect="1" arrows="1" fold="1" page="1" pageScale="1" pageWidth="850" pageHeight="1100" math="0" shadow="0">
            <root>
                <mxCell id="0"/>
                <mxCell id="1" parent="0"/>
                <mxCell id="Iy7f3M6e5TIdQ5P-GXEr-1" value="" style="whiteSpace=wrap;html=1;aspect=fixed;" vertex="1" parent="1">
                    <mxGeometry x="90" y="150" width="620" height="620" as="geometry"/>
                </mxCell>
                <mxCell id="7uwJ3zIsB6UCKHGoegL8-1" value="&lt;p class=&quot;MsoNormal&quot;&gt;&lt;span style=&quot;font-size: 9pt; line-height: 107%; font-family: Helvetica, sans-serif; background-image: initial; background-position: initial; background-size: initial; background-repeat: initial; background-attachment: initial; background-origin: initial; background-clip: initial;&quot;&gt;Once users sign in or&lt;br/&gt;sign up option to search mealmapper &amp;nbsp;by ingredients.&lt;/span&gt;&lt;/p&gt;" style="rounded=1;whiteSpace=wrap;html=1;" vertex="1" parent="1">
                    <mxGeometry width="190" height="60" as="geometry"/>
                </mxCell>
                <mxCell id="7uwJ3zIsB6UCKHGoegL8-4" value="Search" style="html=1;strokeColor=none;fillColor=#0079D6;labelPosition=center;verticalLabelPosition=middle;verticalAlign=top;align=center;fontSize=12;outlineConnect=0;spacingTop=-6;fontColor=#FFFFFF;sketch=0;shape=mxgraph.sitemap.search;" vertex="1" parent="1">
                    <mxGeometry x="110" y="170" width="150" height="90" as="geometry"/>
                </mxCell>
                <mxCell id="NGsQYg8SVfUFNlS7wdiF-1" value="MealMapper Heading and Nav-Bar&amp;nbsp;" style="rounded=1;whiteSpace=wrap;html=1;" vertex="1" parent="1">
                    <mxGeometry x="90" y="80" width="620" height="60" as="geometry"/>
                </mxCell>
                <mxCell id="NGsQYg8SVfUFNlS7wdiF-3" value="&lt;p class=&quot;MsoNormal&quot;&gt;&lt;span style=&quot;font-family: Helvetica, sans-serif;&quot;&gt;once ingredients search,&lt;/span&gt;&lt;/p&gt;&lt;p class=&quot;MsoNormal&quot;&gt;&lt;span style=&quot;font-family: Helvetica, sans-serif;&quot;&gt;&amp;nbsp;mealmapper will produce multiple&lt;/span&gt;&lt;/p&gt;&lt;p class=&quot;MsoNormal&quot;&gt;&lt;span style=&quot;font-family: Helvetica, sans-serif;&quot;&gt;recipes and required ingredients.&lt;/span&gt;&lt;br&gt;&lt;/p&gt;&lt;p class=&quot;MsoNormal&quot;&gt;&lt;span style=&quot;font-family: Helvetica, sans-serif;&quot;&gt;list&lt;/span&gt;&lt;/p&gt;&lt;p class=&quot;MsoNormal&quot;&gt;&lt;span style=&quot;font-family: Helvetica, sans-serif;&quot;&gt;(maybe side scroll to choose)&lt;/span&gt;&lt;/p&gt;" style="rounded=1;whiteSpace=wrap;html=1;" vertex="1" parent="1">
                    <mxGeometry x="210" y="290" width="370" height="250" as="geometry"/>
                </mxCell>
                <mxCell id="NGsQYg8SVfUFNlS7wdiF-4" value="" style="endArrow=classic;startArrow=classic;html=1;exitX=-0.008;exitY=0.081;exitDx=0;exitDy=0;exitPerimeter=0;" edge="1" parent="1" source="Iy7f3M6e5TIdQ5P-GXEr-1">
                    <mxGeometry width="50" height="50" relative="1" as="geometry">
                        <mxPoint x="80" y="210" as="sourcePoint"/>
                        <mxPoint x="60" y="60" as="targetPoint"/>
                        <Array as="points">
                            <mxPoint x="10" y="110"/>
                        </Array>
                    </mxGeometry>
                </mxCell>
            </root>
        </mxGraphModel>
    </diagram>
</mxfile>
